<svg width="41" height="41" viewBox="0 0 41 41" fill="none" xmlns="http://www.w3.org/2000/svg">
<g clip-path="url(#clip0)">
<path d="M38.8659 18.0134L35.5725 16.5095L32.6655 11.8718C31.8253 10.5276 30.3467 9.71262 28.7588 9.72103H16.3748C14.9381 9.72103 13.577 10.3848 12.7033 11.5274L8.94773 16.4423L2.68852 18.1563C1.10061 18.5931 0 20.0466 0 21.6933V24.0878C0 26.1126 1.61311 27.7845 3.6379 27.7845H4.17561C4.82253 30.2798 7.36822 31.7753 9.86351 31.1284C11.5018 30.6999 12.7873 29.4228 13.2074 27.7845H27.3221C27.969 30.2798 30.5147 31.7753 33.01 31.1284C34.6483 30.6999 35.9337 29.4228 36.3538 27.7845H37.362C39.3868 27.7845 40.9999 26.1126 40.9999 24.0878V21.3573C41.0083 19.9206 40.1682 18.6099 38.8659 18.0134ZM8.68728 29.5825C7.04056 29.5825 5.7047 28.2466 5.7047 26.5999C5.7047 24.9532 7.04056 23.6173 8.68728 23.6173C10.334 23.6173 11.6699 24.9532 11.6699 26.5999C11.6783 28.2382 10.3424 29.5741 8.68728 29.5825ZM31.8338 29.5825C30.187 29.5825 28.8512 28.2466 28.8512 26.5999C28.8512 24.9532 30.187 23.6173 31.8338 23.6173C33.4805 23.6173 34.8163 24.9532 34.8163 26.5999C34.8247 28.2382 33.4889 29.5741 31.8338 29.5825ZM37.362 26.1042H36.4714C36.1942 23.5417 33.8837 21.6933 31.3213 21.979C29.1452 22.2142 27.4313 23.9366 27.1961 26.1042H13.325C13.0477 23.5417 10.7373 21.6933 8.17478 21.979C5.99876 22.2142 4.28483 23.9366 4.04958 26.1042H3.6295C2.52889 26.1042 1.67192 25.1884 1.67192 24.0878V21.6933C1.66352 20.7944 2.26004 20.013 3.1254 19.7694L9.67027 17.9798C9.8467 17.9294 10.0063 17.8286 10.1156 17.6774L14.0307 12.544C14.5936 11.8214 15.459 11.4013 16.3748 11.4013H28.7588C29.767 11.3929 30.7163 11.9054 31.2456 12.7624L34.287 17.6185C34.371 17.7614 34.5055 17.8706 34.6483 17.9378L38.1602 19.5425C38.8659 19.8702 39.3196 20.5759 39.3112 21.3573V24.0878H39.3196C39.3196 25.1884 38.4626 26.1042 37.362 26.1042Z" fill="white"/>
</g>
<defs>
<clipPath id="clip0">
<rect width="40.625" height="40.625" fill="white" transform="scale(1.00923)"/>
</clipPath>
</defs>
</svg>
