<svg width="41" height="41" viewBox="0 0 41 41" fill="none" xmlns="http://www.w3.org/2000/svg">
<g clip-path="url(#clip0)">
<path d="M40.5909 16.131L26.8264 5.75126C26.4598 5.47482 25.9548 5.47482 25.5881 5.75126L23.3254 7.45762L21.0626 5.75126C20.696 5.47482 20.191 5.47482 19.8244 5.75126L17.6181 7.41502L15.4117 5.75126C15.0451 5.47482 14.5401 5.47482 14.1735 5.75126L0.408926 16.131C0.151438 16.3253 0 16.6294 0 16.9519V34.4278C0 34.9957 0.460336 35.456 1.02819 35.456H6.67913H12.4426H28.5574H34.2084H39.9718C40.5397 35.456 41 34.9957 41 34.4278V16.9519C41 16.6294 40.8486 16.3253 40.5909 16.131ZM38.9436 33.3996H35.2366V16.9519C35.2366 16.6292 35.0851 16.3253 34.8275 16.131L25.0332 8.74535L26.2073 7.85993L38.9436 17.4644V33.3996ZM29.5856 33.3996V16.9519C29.5856 16.6292 29.4342 16.3253 29.1765 16.131L19.3259 8.7029L20.4437 7.86008L33.1802 17.4646V33.3998H29.5856V33.3996ZM16.4766 33.3995H13.4708H13.1088V25.9436H16.4766V33.3995ZM18.533 33.3995V24.9154C18.533 24.3476 18.0727 23.8872 17.5048 23.8872H12.0807C11.5128 23.8872 11.0525 24.3476 11.0525 24.9154V33.3995H7.70732H2.05638V17.4643L14.7927 7.85978L27.5292 17.4643V33.3995H18.533Z" fill="white"/>
</g>
<defs>
<clipPath id="clip0">
<rect width="40.625" height="40.625" fill="white" transform="scale(1.00923)"/>
</clipPath>
</defs>
</svg>
