<svg width="40" height="40" viewBox="0 0 40 40" fill="none" xmlns="http://www.w3.org/2000/svg">
<g clip-path="url(#clip0)">
<path d="M36.7622 10.2993C36.7417 9.21939 36.7221 8.19918 36.7221 7.2122C36.7221 6.43897 36.0954 5.8121 35.322 5.8121C29.3342 5.8121 24.7753 4.09128 20.9752 0.3965C20.4316 -0.132179 19.5665 -0.131992 19.0231 0.3965C15.2234 4.09128 10.6652 5.8121 4.67782 5.8121C3.90459 5.8121 3.27772 6.43897 3.27772 7.2122C3.27772 8.19937 3.2583 9.21995 3.23758 10.3001C3.04568 20.3502 2.78283 34.1143 19.5406 39.9229C19.6892 39.9744 19.8441 40.0002 19.9991 40.0002C20.154 40.0002 20.3091 39.9744 20.4575 39.9229C37.2166 34.1141 36.9541 20.3496 36.7622 10.2993ZM19.9992 37.1143C5.62728 31.8934 5.84457 20.4564 6.03741 10.3535C6.04899 9.74713 6.06019 9.15946 6.06803 8.58337C11.6759 8.34666 16.1603 6.64731 19.9992 3.30311C23.8385 6.64731 28.3237 8.34684 33.9319 8.58337C33.9398 9.15928 33.951 9.74657 33.9626 10.3525C34.1552 20.4559 34.3723 31.8932 19.9992 37.1143Z" fill="white"/>
<path d="M24.8206 15.1364L18.063 21.8937L15.1793 19.0101C14.6325 18.4635 13.746 18.4635 13.1994 19.0101C12.6526 19.557 12.6526 20.4434 13.1994 20.9902L17.073 24.8638C17.3463 25.1371 17.7047 25.2737 18.063 25.2737C18.4212 25.2737 18.7796 25.1371 19.0529 24.8638L26.8004 17.1166C27.3474 16.5698 27.3473 15.6832 26.8006 15.1366C26.254 14.5898 25.3674 14.5897 24.8206 15.1364Z" fill="white"/>
</g>
<defs>
<clipPath id="clip0">
<rect width="40" height="40" fill="white"/>
</clipPath>
</defs>
</svg>
