<svg width="11" height="21" viewBox="0 0 11 21" fill="none" xmlns="http://www.w3.org/2000/svg">
<path d="M10.7808 12.7849C10.6794 12.4415 10.5563 12.1426 10.4118 11.8887C10.2674 11.6347 10.0605 11.3868 9.79079 11.1444C9.5214 10.9021 9.27906 10.707 9.06418 10.5586C8.84943 10.4102 8.55443 10.2442 8.17935 10.0605C7.8046 9.87677 7.50767 9.74009 7.28909 9.6502C7.07024 9.56043 6.75365 9.43737 6.33953 9.28111C5.97237 9.14057 5.699 9.03311 5.51914 8.95894C5.33948 8.88468 5.10321 8.77928 4.81022 8.64247C4.51736 8.50587 4.29858 8.3847 4.15402 8.27929C4.00949 8.17388 3.85524 8.045 3.69114 7.89268C3.52703 7.74035 3.41182 7.57822 3.34536 7.40636C3.27907 7.23446 3.24583 7.04692 3.24583 6.84378C3.24583 6.31264 3.48012 5.8789 3.94887 5.54306C4.41766 5.20722 5.02321 5.03922 5.76545 5.03922C6.09341 5.03922 6.42778 5.08408 6.7674 5.17401C7.10701 5.26395 7.39807 5.36525 7.64029 5.47862C7.88271 5.59199 8.11113 5.71701 8.32605 5.85366C8.54093 5.99042 8.69321 6.09386 8.78314 6.16417C8.87299 6.23453 8.92992 6.28136 8.95311 6.30484C9.05483 6.38295 9.16003 6.41025 9.26942 6.38689C9.38656 6.37909 9.47649 6.3165 9.53913 6.19943L10.4885 4.48846C10.5822 4.33228 10.5629 4.18381 10.43 4.0431C10.383 3.99623 10.3246 3.9416 10.2538 3.87904C10.1837 3.81649 10.0313 3.70324 9.79674 3.5391C9.5624 3.37508 9.31436 3.22858 9.05281 3.09965C8.79098 2.97085 8.45103 2.83991 8.03302 2.70717C7.61525 2.57422 7.18348 2.48445 6.73805 2.43762V0.374999C6.73805 0.265693 6.70295 0.175801 6.63285 0.105448C6.56257 0.0352588 6.47268 0 6.36313 0H4.78096C4.67941 0 4.59153 0.0370648 4.51732 0.111318C4.44311 0.18557 4.406 0.27341 4.406 0.374999V2.48441C3.17937 2.7187 2.18326 3.24217 1.41762 4.05468C0.652067 4.86723 0.269146 5.81241 0.269146 6.89065C0.269146 7.21094 0.302476 7.51562 0.368889 7.80455C0.43522 8.09372 0.517312 8.3535 0.615002 8.58394C0.712611 8.81454 0.851348 9.04103 1.03101 9.26375C1.21067 9.48638 1.38064 9.67782 1.54076 9.8379C1.70097 9.99794 1.90997 10.164 2.1677 10.3358C2.4256 10.5078 2.6463 10.6466 2.82994 10.752C3.01363 10.8571 3.25773 10.9786 3.56233 11.115C3.86702 11.2518 4.10735 11.3552 4.28315 11.4257C4.45895 11.4959 4.69915 11.5937 5.00396 11.7184C5.4258 11.8825 5.73836 12.0095 5.94146 12.0993C6.14472 12.1892 6.40245 12.3142 6.71514 12.4744C7.02755 12.6344 7.25597 12.7809 7.40062 12.9138C7.54514 13.0467 7.67596 13.2107 7.79323 13.406C7.9105 13.6012 7.96923 13.8083 7.96923 14.0271C7.96923 14.6443 7.72899 15.1208 7.24838 15.4565C6.76797 15.7925 6.21114 15.9605 5.57841 15.9605C5.2896 15.9605 5.00031 15.9294 4.71134 15.867C3.69569 15.6636 2.7465 15.1753 1.86367 14.4019L1.84024 14.3784C1.76988 14.2927 1.67609 14.2575 1.55903 14.2732C1.434 14.2888 1.34411 14.3358 1.28948 14.414L0.0823853 15.996C-0.034843 16.1522 -0.0269208 16.3123 0.105864 16.4764C0.144981 16.5233 0.213323 16.5938 0.310932 16.6873C0.408786 16.7813 0.590457 16.9275 0.855945 17.1272C1.12151 17.3265 1.4106 17.5137 1.72317 17.6897C2.0357 17.8655 2.43212 18.0392 2.91269 18.2111C3.39326 18.3828 3.8912 18.5038 4.40686 18.5741V20.6249C4.40686 20.7266 4.44401 20.8144 4.51818 20.8887C4.59243 20.9631 4.68027 21 4.78182 21H6.36399C6.47354 21 6.56344 20.9649 6.63367 20.8947C6.7039 20.8244 6.73887 20.7346 6.73887 20.625V18.5742C7.9813 18.3711 8.99108 17.8378 9.76833 16.9745C10.5457 16.1112 10.9345 15.0819 10.9345 13.8866C10.9341 13.4961 10.8834 13.1289 10.7808 12.7849Z" fill="#757575"/>
</svg>
