<svg width="52" height="52" viewBox="0 0 52 52" fill="none" xmlns="http://www.w3.org/2000/svg">
<path d="M3.04688 33.8795V12.9608L0.990244 12.1927C0.395946 11.971 0.00120544 11.4032 1.52588e-05 10.7685C-0.00117492 10.1337 0.391582 9.56481 0.985086 9.34066L25.4616 0.0984877C25.8087 -0.0328292 26.1912 -0.0328292 26.5379 0.0984877L51.0145 9.34066C51.6088 9.56481 52.0011 10.1337 51.9999 10.7685C51.9987 11.4032 51.604 11.971 51.0093 12.1927L42.7578 15.2745V26.3809C42.7578 27.0038 42.3785 27.564 41.8001 27.7952C36.7525 29.8146 31.4363 30.8381 26 30.8381C20.5636 30.8381 15.2475 29.8146 10.1999 27.7952C9.62146 27.564 9.24218 27.0038 9.24218 26.3809V15.2745L6.09375 14.0986V33.8795C7.86673 34.5083 9.14062 36.2015 9.14062 38.1875C9.14062 39.3571 8.69827 40.4251 7.97305 41.2344C8.69827 42.0437 9.14062 43.1117 9.14062 44.2813V50.4766C9.14062 51.318 8.45865 52 7.61719 52H1.52345C0.681986 52 1.52588e-05 51.318 1.52588e-05 50.4766V44.2813C1.52588e-05 43.1117 0.442363 42.0437 1.16758 41.2344C0.441966 40.4251 1.52588e-05 39.3571 1.52588e-05 38.1875C1.52588e-05 36.2015 1.27351 34.5083 3.04688 33.8795ZM26 3.1521L5.85691 10.7578C6.74875 11.091 25.1117 17.9485 26 18.2801C26.6708 18.0298 44.6974 11.2977 46.143 10.7578L26 3.1521ZM12.2891 25.3355C21.1702 28.6272 30.8297 28.6272 39.7109 25.3355V16.4123L26.5328 21.3337C26.1892 21.4619 25.8107 21.4619 25.4668 21.3337L12.2891 16.4123V25.3355ZM4.57032 36.6641C3.73044 36.6641 3.04688 37.3477 3.04688 38.1875C3.04688 39.0278 3.73044 39.711 4.57032 39.711C5.41019 39.711 6.09375 39.0278 6.09375 38.1875C6.09375 37.3477 5.41019 36.6641 4.57032 36.6641ZM3.04688 48.9531H6.09375V44.2813C6.09375 43.4414 5.41019 42.7578 4.57032 42.7578C3.73044 42.7578 3.04688 43.4414 3.04688 44.2813V48.9531Z" fill="white"/>
<path d="M24.4765 10.7666C24.4765 11.608 25.1585 12.29 26 12.29C26.8414 12.29 27.5234 11.608 27.5234 10.7666C27.5234 9.92512 26.8414 9.24315 26 9.24315C25.1585 9.24315 24.4765 9.92512 24.4765 10.7666Z" fill="white"/>
</svg>
