<svg width="40" height="38" viewBox="0 0 40 38" fill="none" xmlns="http://www.w3.org/2000/svg">
<path d="M37.0548 13.4782H36.4724C35.5044 10.9926 33.8801 8.73664 31.7144 6.90728C31.4109 5.80802 31.6406 4.61852 32.4199 3.38801C32.8547 2.69072 32.8793 1.85397 32.4855 1.14027C32.0918 0.434781 31.3535 0 30.5577 0C30.4675 0 30.369 0.0082034 30.2788 0.0164068C27.2846 0.38556 25.4634 1.72272 24.3723 2.99425C23.0598 2.58408 21.3945 2.46102 21.0828 2.43641C20.3117 2.35438 19.5241 2.30516 18.7448 2.30516C13.7653 2.30516 9.08118 4.01147 5.54551 7.09595C1.96882 10.2215 0 14.397 0 18.8432C0 19.9917 0.131255 21.1402 0.401967 22.2641C0.410171 22.2887 0.410171 22.3133 0.418374 22.3297L0.426578 22.3707C0.705494 23.5028 1.12387 24.6102 1.65709 25.6685C2.55126 27.5881 3.61771 29.196 4.8154 30.4347C6.47249 32.141 6.75961 34.3067 6.80063 35.1762V35.6028C6.80063 35.6192 6.80063 35.6438 6.80063 35.6602C6.80063 35.7505 6.80883 35.8325 6.82524 35.9146C6.98111 36.9318 7.85887 37.7111 8.90891 37.7111H15.0205C16.1853 37.7111 17.1287 36.7677 17.1287 35.6028V35.3239C17.9983 35.3895 18.8761 35.3977 19.7538 35.3567V35.6028C19.7538 36.7677 20.6972 37.7111 21.8621 37.7111H27.9736C29.1385 37.7111 30.0819 36.7677 30.0819 35.6028V34.1098C30.0901 33.7653 30.2214 32.1328 31.7718 30.7218C31.8457 30.6562 31.9277 30.5905 32.0015 30.5249C32.0097 30.5167 32.0097 30.5167 32.0179 30.5085C32.0425 30.4921 32.0589 30.4757 32.0754 30.4511C34.118 28.6217 35.6602 26.3904 36.5544 23.954H37.0384C38.6709 23.954 39.9999 22.625 39.9999 20.9925V16.4232C40.0163 14.799 38.6873 13.4782 37.0548 13.4782ZM30.5577 2.20672C30.5495 2.20672 30.5495 2.20672 30.5577 2.20672C30.5495 2.19852 30.5495 2.19852 30.5495 2.19852C30.5495 2.19852 30.5495 2.19852 30.5495 2.20672L30.4101 1.10746L30.5577 2.20672ZM37.8013 21.0007C37.8013 21.4109 37.465 21.7473 37.0548 21.7473H35.7751C35.2911 21.7473 34.8563 22.0672 34.7169 22.5266C33.995 24.8892 32.5594 27.0713 30.5823 28.835C30.5741 28.8432 30.5741 28.8432 30.5659 28.8514L30.5577 28.8596C30.4839 28.9252 30.4101 28.9909 30.3362 29.0565C30.328 29.0647 30.3198 29.0729 30.3116 29.0811C28.1213 31.0663 27.8998 33.4043 27.8834 34.077C27.8834 34.0852 27.8834 34.0934 27.8834 34.1016V35.5044H21.9769V34.1672C21.9769 33.8555 21.8457 33.552 21.6078 33.3469C21.3781 33.1336 21.0582 33.0352 20.7546 33.068C20.082 33.1418 19.4093 33.1746 18.7448 33.1746C17.8834 33.1746 17.0221 33.1172 16.1771 33.0023C15.8572 32.9613 15.5373 33.0598 15.2994 33.2648C15.0615 33.4781 14.922 33.7817 14.922 34.1016V35.5044H9.02376V35.1516C9.02376 35.1352 9.02376 35.1188 9.02376 35.1024C8.97454 33.995 8.62179 31.1648 6.41507 28.8924C5.38144 27.826 4.45445 26.4232 3.66693 24.7169C3.65872 24.7005 3.65052 24.6923 3.65052 24.6759C3.18292 23.7653 2.82197 22.8137 2.58408 21.8375C2.58408 21.8293 2.57587 21.8211 2.57587 21.8129C2.57587 21.8047 2.57587 21.8047 2.57587 21.7965C2.34618 20.8285 2.22313 19.8359 2.22313 18.8514C2.22313 10.9516 9.63901 4.52829 18.753 4.52829C19.4585 4.52829 20.1722 4.5693 20.8695 4.64313C20.8859 4.64313 20.9023 4.64313 20.9187 4.65134C21.8375 4.70876 23.5438 4.94666 24.2247 5.31581C24.7251 5.58653 25.3486 5.43066 25.6685 4.96307C26.3822 3.90483 27.8096 2.56767 30.5495 2.23133C29.4421 4.00327 29.1139 5.84083 29.5979 7.55535C29.6061 7.87528 29.762 8.1788 30.0081 8.38389C32.223 10.1722 33.8309 12.4446 34.6512 14.9466C34.7989 15.3978 35.2255 15.7095 35.7013 15.7095C35.7095 15.7095 35.7095 15.7095 35.7177 15.7095H37.063C37.4732 15.7095 37.8095 16.0459 37.8095 16.456V21.0007H37.8013Z" fill="white"/>
</svg>
